# xmcd
#
# Track frame offsets: 
#        150
#        14686
#        30204
#        55934
#        76198
#        95072
#        116866
#        134803
#        156881
#        174011
#        194769
#        212800
#        234778
#        254271
#        280219
#        300843
#        323809
#
# Disc length: 4603 seconds
#
# Revision: 0
# Processed by: cddbd v1.5.2PL0 Copyright (c) Steve Scherf et al.
# Submitted via: ExactAudioCopy v0.95a5
#
DISCID=e411f911
DTITLE=Elton John - Forever Best! CD02
DYEAR=2007
DGENRE=Pop
TTITLE0=Goodbye Yellow Brick Road
TTITLE1=Blue Eyes
TTITLE2=Nikita
TTITLE3=Healing Hands
TTITLE4=Mona Lisas and Mad Hatters (Part Two)
TTITLE5=Circle Of Life
TTITLE6=Something About the Way You Look Tonight
TTITLE7=When A Woman Doesn't Want You
TTITLE8=Sorry Seems to Be the Hardest Word
TTITLE9=Amazes Me
TTITLE10=Can You Feel The Love Tonight
TTITLE11=Club At The End Of The Street
TTITLE12=Blue Avenue
TTITLE13=Suit Of Wolves
TTITLE14=I Want Lou5
TTITLE15=Song For Guy
TTITLE16=Believe
EXTD=
EXTT0=
EXTT1=
EXTT2=
EXTT3=
EXTT4=
EXTT5=
EXTT6=
EXTT7=
EXTT8=
EXTT9=
EXTT10=
EXTT11=
EXTT12=
EXTT13=
EXTT14=
EXTT15=
EXTT16=
PLAYORDER=
